<svg width="20" height="20" viewBox="0 0 20 20" fill="none" xmlns="http://www.w3.org/2000/svg">
<path d="M20.0001 10.0608C20.0001 4.5048 15.5225 0 10.0001 0C4.47764 0 6.10352e-05 4.5048 6.10352e-05 10.0608C6.10352e-05 15.082 3.6564 19.2444 8.43772 20V12.9697H5.89796V10.0608H8.43772V7.84376C8.43772 5.32252 9.93116 3.92892 12.2149 3.92892C13.309 3.92892 14.4537 4.12558 14.4537 4.12558V6.60155H13.1923C11.9506 6.60155 11.5624 7.37688 11.5624 8.1734V10.0607H14.3355L13.8925 12.9696H11.5623V19.9999C16.3436 19.2457 20 15.0833 20 10.0607L20.0001 10.0608Z" fill="#636C73"/>
</svg>
