<svg width="20" height="20" viewBox="0 0 20 20" fill="none" xmlns="http://www.w3.org/2000/svg">
<path d="M10 1.80184C12.6702 1.80184 12.9864 1.812 14.0409 1.86011C15.0159 1.90461 15.5454 2.06752 15.8978 2.20443C16.3645 2.38583 16.6977 2.60257 17.0476 2.95248C17.3975 3.30239 17.6142 3.63555 17.7956 4.10229C17.9325 4.4547 18.0955 4.98419 18.1399 5.95914C18.1881 7.01364 18.1982 7.32989 18.1982 10C18.1982 12.6701 18.1881 12.9864 18.1399 14.0409C18.0955 15.0158 17.9325 15.5453 17.7956 15.8978C17.6142 16.3645 17.3975 16.6976 17.0476 17.0476C16.6977 17.3975 16.3645 17.6142 15.8978 17.7956C15.5454 17.9325 15.0159 18.0954 14.0409 18.1399C12.9866 18.188 12.6703 18.1982 10 18.1982C7.32975 18.1982 7.0135 18.188 5.9592 18.1399C4.98421 18.0954 4.45472 17.9325 4.10235 17.7956C3.63557 17.6142 3.30241 17.3975 2.9525 17.0476C2.60259 16.6976 2.38585 16.3645 2.20449 15.8978C2.06754 15.5453 1.90463 15.0158 1.86013 14.0409C1.81202 12.9864 1.80186 12.6701 1.80186 10C1.80186 7.32989 1.81202 7.01364 1.86013 5.95918C1.90463 4.98419 2.06754 4.4547 2.20449 4.10229C2.38585 3.63555 2.60259 3.30239 2.9525 2.95248C3.30241 2.60257 3.63557 2.38583 4.10235 2.20443C4.45472 2.06752 4.98421 1.90461 5.95916 1.86011C7.01366 1.812 7.32991 1.80184 10 1.80184ZM10 0C7.28418 0 6.94368 0.0115116 5.87707 0.0601777C4.81265 0.108764 4.08575 0.277786 3.44964 0.525007C2.79205 0.780564 2.23438 1.1225 1.67845 1.67843C1.12252 2.23436 0.780585 2.79203 0.525028 3.44962C0.277807 4.08573 0.108786 4.81263 0.0601991 5.87705C0.0115329 6.94362 6.10352e-05 7.28416 6.10352e-05 10C6.10352e-05 12.7159 0.0115329 13.0564 0.0601991 14.123C0.108786 15.1874 0.277807 15.9143 0.525028 16.5504C0.780585 17.208 1.12252 17.7657 1.67845 18.3216C2.23438 18.8775 2.79205 19.2195 3.44964 19.475C4.08575 19.7223 4.81265 19.8913 5.87707 19.9399C6.94368 19.9885 7.28418 20 10 20C12.7159 20 13.0564 19.9885 14.123 19.9399C15.1874 19.8913 15.9143 19.7223 16.5504 19.475C17.208 19.2195 17.7657 18.8775 18.3216 18.3216C18.8776 17.7657 19.2195 17.208 19.4751 16.5504C19.7223 15.9143 19.8913 15.1874 19.9399 14.123C19.9885 13.0564 20.0001 12.7159 20.0001 10C20.0001 7.28416 19.9885 6.94362 19.9399 5.87705C19.8913 4.81263 19.7223 4.08573 19.4751 3.44962C19.2195 2.79203 18.8776 2.23436 18.3216 1.67843C17.7657 1.1225 17.208 0.780564 16.5504 0.525007C15.9143 0.277786 15.1874 0.108764 14.123 0.0601777C13.0564 0.0115116 12.7159 0 10 0ZM10 4.86487C7.16399 4.86487 4.86489 7.16397 4.86489 10C4.86489 12.8361 7.16399 15.1352 10 15.1352C12.8361 15.1352 15.1352 12.8361 15.1352 10C15.1352 7.16397 12.8361 4.86487 10 4.86487ZM10 13.3334C8.1591 13.3334 6.66669 11.841 6.66669 10C6.66669 8.15908 8.1591 6.66667 10 6.66667C11.841 6.66667 13.3334 8.15908 13.3334 10C13.3334 11.841 11.841 13.3334 10 13.3334ZM16.5381 4.66199C16.5381 5.32474 16.0008 5.86201 15.3381 5.86201C14.6753 5.86201 14.1381 5.32474 14.1381 4.66199C14.1381 3.99924 14.6753 3.462 15.3381 3.462C16.0008 3.462 16.5381 3.99924 16.5381 4.66199Z" fill="#636C73"/>
</svg>
