<svg width="20" height="20" viewBox="0 0 20 20" fill="none" xmlns="http://www.w3.org/2000/svg">
<path d="M10.0001 20C15.5229 20 20.0001 15.5228 20.0001 10C20.0001 4.47715 15.5229 0 10.0001 0C4.47721 0 6.10352e-05 4.47715 6.10352e-05 10C6.10352e-05 15.5228 4.47721 20 10.0001 20ZM14.9058 8.41501C14.9058 11.6 12.4808 15.275 8.04578 15.275C6.68578 15.275 5.41578 14.875 4.36078 14.185C4.55078 14.21 4.74078 14.22 4.93578 14.22C6.06578 14.22 7.10578 13.835 7.93078 13.19C6.87578 13.17 5.98578 12.475 5.68078 11.515C5.83078 11.545 5.98078 11.56 6.13578 11.56C6.35578 11.56 6.57078 11.53 6.77078 11.475C5.66578 11.25 4.83578 10.28 4.83578 9.11001V9.08001C5.16078 9.26001 5.53078 9.37001 5.92578 9.38001C5.27578 8.95001 4.85078 8.21001 4.85078 7.37501C4.85078 6.93501 4.97078 6.52001 5.17578 6.16501C6.36578 7.62501 8.14078 8.58501 10.1458 8.68501C10.1008 8.51001 10.0808 8.32501 10.0808 8.13501C10.0808 6.80501 11.1608 5.72501 12.4908 5.72501C13.1858 5.72501 13.8108 6.01501 14.2508 6.48501C14.8008 6.37501 15.3158 6.17501 15.7808 5.90001C15.6008 6.46501 15.2208 6.93501 14.7208 7.23501C15.2108 7.17501 15.6758 7.04501 16.1058 6.85501C15.7808 7.34001 15.3708 7.76501 14.9008 8.10501C14.9058 8.20501 14.9058 8.31001 14.9058 8.41501Z" fill="#636C73"/>
</svg>
